<?xml version="1.0" encoding="UTF-8" standalone="no"?>
<svg
   xmlns:dc="http://purl.org/dc/elements/1.1/"
   xmlns:cc="http://creativecommons.org/ns#"
   xmlns:rdf="http://www.w3.org/1999/02/22-rdf-syntax-ns#"
   xmlns:svg="http://www.w3.org/2000/svg"
   xmlns="http://www.w3.org/2000/svg"
   xmlns:sodipodi="http://sodipodi.sourceforge.net/DTD/sodipodi-0.dtd"
   xmlns:inkscape="http://www.inkscape.org/namespaces/inkscape"
   width="100px"
   height="100px"
   viewBox="5.0 -10.0 100.0 135.0"
   version="1.1"
   id="svg2"
   inkscape:version="0.48.4 r9939"
   sodipodi:docname="noun_18502_cc.svg">
  <metadata
     id="metadata20">
    <rdf:RDF>
      <cc:Work
         rdf:about="">
        <dc:format>image/svg+xml</dc:format>
        <dc:type
           rdf:resource="http://purl.org/dc/dcmitype/StillImage" />
        <dc:title>SAMUS</dc:title>
      </cc:Work>
    </rdf:RDF>
  </metadata>
  <sodipodi:namedview
     pagecolor="#ffffff"
     bordercolor="#666666"
     borderopacity="1"
     objecttolerance="10"
     gridtolerance="10"
     guidetolerance="10"
     inkscape:pageopacity="0"
     inkscape:pageshadow="2"
     inkscape:window-width="640"
     inkscape:window-height="480"
     id="namedview18"
     showgrid="false"
     inkscape:zoom="2.36"
     inkscape:cx="50"
     inkscape:cy="50"
     inkscape:window-x="75"
     inkscape:window-y="34"
     inkscape:window-maximized="0"
     inkscape:current-layer="svg2" />
  <title
     id="title4">SAMUS</title>
  <description
     id="description6">Created with Sketch (http://www.bohemiancoding.com/sketch)</description>
  <defs
     id="defs8" />
  <g
     id="Page 1"
     transform="matrix(1.3319183,0,0,1.3319183,-9.691141,-8.722223)"
     style="fill:none;stroke:none">
    <g
       id="SAMUS"
       style="fill:#000000">
      <path
         d="m 92.497045,4.8681323 c -0.895477,1.006864 -5.454285,5.7693307 -7.392796,7.7578877 -5.383057,5.411894 -10.979809,10.622416 -16.12882,16.260854 -2.991718,3.191759 -6.039403,6.021048 -9.041297,9.207772 3.03751,0.760183 9.366925,3.020592 9.366925,3.020592 0.44774,1.021967 0.15264,16.280992 10e-7,23.167942 -0.742842,0.201373 -12.353557,6.15194 -17.416073,8.910747 C 37.867667,80.836025 23.753678,88.301922 9.7414474,95.94402 9.7516234,95.657064 9.7719754,95.073083 9.7821514,94.786127 16.681419,87.667598 23.962284,80.916574 30.790321,73.732599 33.720983,70.908346 40.365853,63.855263 40.635515,63.110184 37.465719,62.455722 34.509616,61.015906 31.227885,60.905151 30.998927,53.80676 30.942959,38.089612 31.436491,37.631489 50.292455,27.376578 91.601565,4.9637844 92.497045,4.8681323 z M 34.229779,39.95231 c -0.162815,5.970704 0.122111,11.946442 0.03053,17.917146 3.118917,0.674599 9.321136,2.3762 9.321135,2.139586 1e-6,-0.266818 4.884438,-4.349652 7.107875,-6.751023 0.747929,-1.00183 2.594857,-1.40961 3.398754,-0.302059 0.620731,0.679633 0.834425,1.862698 -0.02035,2.461782 -6.517671,6.474136 -13.086222,12.913032 -19.598805,19.397236 -2.457483,2.461783 -6.843301,6.977567 -9.132881,9.595414 2.309932,-0.427918 30.079995,-16.784423 40.978396,-22.80547 -0.03562,-6.03615 0.03053,-12.0723 -0.03053,-18.10845 -2.915398,-0.609153 -7.876155,-1.963385 -8.766548,-1.963385 -1.14479,0.589016 -5.830797,5.598164 -9.148144,7.949192 -1.154966,-0.312128 -1.663762,-0.81556 -1.969038,-1.318992 -0.170583,-1.265881 0.0016,-1.543484 -1e-6,-1.671395 3.739648,-3.569333 7.514911,-7.118528 10.939105,-10.984887 4.024573,-3.901598 7.952475,-7.903882 11.97196,-11.80548 C 70.812181,22.25164 81.303546,13.40634 81.303546,13.426477 80.79475,13.40634 43.469506,34.787098 34.229779,39.95231 z m 0,0"
         id="Shape"
         transform="matrix(0.9998477,0.01745241,-0.01745241,0.9998477,0.88749303,-0.88447677)"
         inkscape:connector-curvature="0" />
      <path
         d="m 49.758497,85.750023 c -3.883173,0 -7.614669,-0.649411 -11.091805,-1.84555 4.047817,-1.974885 8.092565,-3.956034 12.131207,-5.94912 6.121281,-3.019469 20.14484,-9.503617 21.034722,-9.708544 0.462673,-8.055114 0.08796,-27.380974 -0.401675,-28.595783 0,0 -2.259634,-0.429767 -5.833668,-1.445483 1.442466,-1.408355 4.884445,-5.32583 8.937796,-9.941699 5.768829,6.105048 9.305821,14.34136 9.305821,23.403781 0,18.823189 -15.259209,34.082398 -34.082398,34.082398 z m -24.675494,-10.5721 c -5.828568,-6.115597 -9.406904,-14.395065 -9.406904,-23.510298 0,-18.82319 15.259208,-34.082398 34.082398,-34.082398 4.219002,0 8.258956,0.766593 11.988171,2.168088 -17.263346,8.793333 -33.567529,17.145558 -33.567529,17.145558 -0.932758,-2.587883 0.0388,17.479831 0.02038,25.798261 1.434953,0.05011 2.561826,1.062145 6.297187,1.959593 -0.136308,0.334821 -4.109627,4.761998 -9.413705,10.521196 z m 0,0"
         id="Oval 1"
         inkscape:connector-curvature="0" />
    </g>
  </g>
</svg>
