<?xml version="1.0" encoding="UTF-8" standalone="no"?>
<svg
   xmlns:sketch="http://www.bohemiancoding.com/sketch/ns"
   xmlns:dc="http://purl.org/dc/elements/1.1/"
   xmlns:cc="http://creativecommons.org/ns#"
   xmlns:rdf="http://www.w3.org/1999/02/22-rdf-syntax-ns#"
   xmlns:svg="http://www.w3.org/2000/svg"
   xmlns="http://www.w3.org/2000/svg"
   xmlns:sodipodi="http://sodipodi.sourceforge.net/DTD/sodipodi-0.dtd"
   xmlns:inkscape="http://www.inkscape.org/namespaces/inkscape"
   width="90px"
   height="90px"
   viewBox="0 0 90 90"
   version="1.1"
   id="svg3590"
   inkscape:version="0.48.4 r9939"
   sodipodi:docname="laser_cutter.svg">
  <metadata
     id="metadata3638">
    <rdf:RDF>
      <cc:Work
         rdf:about="">
        <dc:format>image/svg+xml</dc:format>
        <dc:type
           rdf:resource="http://purl.org/dc/dcmitype/StillImage" />
      </cc:Work>
    </rdf:RDF>
  </metadata>
  <sodipodi:namedview
     pagecolor="#ffffff"
     bordercolor="#666666"
     borderopacity="1"
     objecttolerance="10"
     gridtolerance="10"
     guidetolerance="10"
     inkscape:pageopacity="0"
     inkscape:pageshadow="2"
     inkscape:window-width="640"
     inkscape:window-height="480"
     id="namedview3636"
     showgrid="false"
     inkscape:zoom="2.6222222"
     inkscape:cx="45"
     inkscape:cy="45"
     inkscape:window-x="65"
     inkscape:window-y="24"
     inkscape:window-maximized="0"
     inkscape:current-layer="svg3590" />
  <!-- Generator: Sketch 3.1 (8751) - http://www.bohemiancoding.com/sketch -->
  <title
     id="title3592">Oval 1 + laser_cut</title>
  <desc
     id="desc3594">Created with Sketch.</desc>
  <defs
     id="defs3596" />
  <circle
     id="Oval-1"
     sketch:type="MSShapeGroup"
     cx="45"
     cy="45"
     r="45"
     sodipodi:cx="45"
     sodipodi:cy="45"
     sodipodi:rx="45"
     sodipodi:ry="45"
     style="fill:#4d4d4d;stroke:none"
     transform="matrix(0.94915254,0,0,0.94915254,2.2881356,2.2881356)" />
  <g
     style="fill:none;stroke:none"
     id="laser_cut"
     transform="matrix(0.93293249,0,0,0.93293249,10.527582,7.5102867)">
    <g
       id="Captions" />
    <g
       id="Your_Icon"
       transform="translate(1.5,9)"
       sketch:type="MSShapeGroup">
      <g
         id="Group">
        <g
           transform="translate(16.5,0)"
           id="Shape"
           style="fill:#ffffff">
          <path
             d="m 31.8405,35.1405 c 0.018,-0.24 0.03675,-0.48 0.0555,-0.71925 l -12.18,0 c 0,-0.14625 0,-0.29325 -0.0015,-0.44025 2.58,-1.0065 5.15925,-2.0145 7.74,-3.021 -0.081,-0.22125 -0.1635,-0.4425 -0.24525,-0.663 -2.838,1.044 -5.676,2.088 -8.51475,3.13125 2.808,-3.405 6.02925,-6.25575 8.8665,-9.456 -0.19425,-0.19275 -0.39,-0.3855 -0.5835,-0.57825 -2.91675,2.91675 -5.832,5.8335 -8.7495,8.75025 0.33675,-1.51125 0.97275,-2.838 1.48275,-4.2135 0.4965,-1.34625 1.578,-2.5485 1.38825,-4.08825 -0.15525,-0.05925 -0.30825,-0.11775 -0.4635,-0.17625 -1.161,2.58225 -2.32275,5.1645 -3.4845,7.74675 -0.32625,-1.0875 -0.327,-2.11125 -0.3255,-3.13575 0.0075,-8.844 0.01875,-17.688 0.01275,-26.532 0,-0.58125 -0.13725,-1.1625 -0.21,-1.743 -0.21,0.0255 -0.42,0.05025 -0.62925,0.07575 l 0,31.89675 c -0.12225,0.02175 -0.243,0.042 -0.3645,0.063 -1.089,-2.7915 -2.17725,-5.58225 -3.26625,-8.37375 -0.21825,0.084 -0.4365,0.168 -0.654,0.252 1.0665,2.91675 2.133,5.83275 3.19875,8.7495 -0.08625,0.04425 -0.17325,0.08775 -0.2595,0.13275 -3.10875,-3.09 -6.2175,-6.18075 -9.3255,-9.27 -0.16275,0.165 -0.3255,0.3315 -0.48825,0.49725 2.82825,2.89575 5.65575,5.7915 8.484,8.6865 -0.048,0.078 -0.09525,0.1575 -0.14325,0.2355 -2.5875,-1.10775 -5.17575,-2.2155 -7.76325,-3.32175 -0.10425,0.22125 -0.20775,0.444 -0.312,0.666 2.7,1.2285 5.39925,2.45625 8.09775,3.6855 -0.04275,0.1305 -0.0855,0.26025 -0.12825,0.39075 -1.48575,0 -2.9715,0 -4.45725,7.5e-4 -1.449,0 -2.898,-0.0022 -4.347,7.5e-4 -3.56325,0.0097 -3.56325,0.01125 -4.38675,0.8115 l 13.23375,0 c -2.45775,1.64625 -5.358,2.1105 -7.764,3.60975 0.0705,0.17325 0.141,0.348 0.2115,0.5205 2.71125,-1.00725 5.4225,-2.013 8.1345,-3.02025 -0.45225,0.80775 -1.0155,1.4235 -1.60275,2.01375 -2.22,2.229 -4.45875,4.43925 -6.66225,6.684 C 5.121,45.309 4.965,45.7845 4.73625,46.188 c 0.22425,0.159 0.44925,0.31575 0.6735,0.47475 2.86725,-2.997 5.73375,-5.994 8.60025,-8.991 0.1095,0.07425 0.219,0.147 0.32775,0.2205 -1.0905,2.57475 -2.181,5.14875 -3.2715,7.7235 0.25125,0.1065 0.504,0.21225 0.75525,0.31875 1.26075,-2.8365 2.5215,-5.673 3.78225,-8.51175 0.1365,0.0225 0.2715,0.04725 0.4065,0.0705 l 0,13.419 c 0.25425,0.0082 0.5085,0.0165 0.76275,0.02475 0.14925,-4.05225 -0.0038,-8.12475 0.4125,-12.2205 0.948,2.42325 1.89525,4.84575 2.84325,7.269 0.22575,-0.087 0.4515,-0.174 0.6765,-0.2625 -1.0005,-2.727 -2.00175,-5.454 -3.003,-8.181 3.37875,2.74125 6.144,6.0015 9.34125,8.7855 0.15525,-0.159 0.309,-0.31875 0.4635,-0.47775 -3.045,-3.1005 -6.09,-6.20025 -9.13425,-9.29925 3.039,0.81075 5.664,2.42325 8.57175,3.2565 0.081,-0.19575 0.16275,-0.39 0.2445,-0.58425 -2.736,-1.2315 -5.47125,-2.4615 -8.20725,-3.69375 0.0345,-0.12825 0.06825,-0.25725 0.10275,-0.38475 4.251,-0.0037 8.50275,-0.0037 12.756,-0.0037 l 0,0 z"
             id="path3606"
             inkscape:connector-curvature="0" />
          <path
             d="m 31.8405,35.1405 -12.759,0 c -0.0345,0.1275 -0.06825,0.2565 -0.10275,0.38475 2.736,1.23225 5.47125,2.46225 8.20725,3.69375 -0.08175,0.195 -0.1635,0.38925 -0.2445,0.58425 -2.90775,-0.8325 -5.53275,-2.44575 -8.57175,-3.2565 3.04425,3.09975 6.09,6.1995 9.13425,9.29925 -0.1545,0.159 -0.30825,0.31875 -0.4635,0.47775 -3.19725,-2.784 -5.96175,-6.04425 -9.34125,-8.7855 1.00125,2.727 2.0025,5.454 3.003,8.181 -0.22575,0.08775 -0.4515,0.17475 -0.6765,0.2625 C 19.07775,43.5585 18.1305,41.136 17.1825,38.71275 16.76625,42.8085 16.91925,46.881 16.77,50.93325 16.51575,50.925 16.2615,50.91675 16.00725,50.9085 l 0,-13.419 c -0.135,-0.0225 -0.27075,-0.04725 -0.4065,-0.0705 -1.26075,2.838 -2.5215,5.6745 -3.78225,8.51175 -0.25125,-0.1065 -0.504,-0.21225 -0.75525,-0.31875 1.0905,-2.57475 2.181,-5.14875 3.2715,-7.7235 C 14.22525,37.815 14.1165,37.74225 14.007,37.668 11.1405,40.665 8.274,43.662 5.40675,46.659 5.1825,46.5 4.9575,46.34325 4.73325,46.18425 4.962,45.78075 5.11725,45.30525 5.4315,44.985 7.635,42.74025 9.87375,40.53 12.09375,38.301 12.68175,37.7115 13.245,37.09575 13.6965,36.28725 10.98525,37.29525 8.274,38.301 5.562,39.3075 5.4915,39.135 5.421,38.96025 5.3505,38.787 c 2.406,-1.4985 5.30625,-1.96275 7.764,-3.60975 l -13.23375,0 C 0.7035,34.377 0.7035,34.3755 4.2675,34.36575 c 1.449,-0.003 2.898,-7.5e-4 4.347,-7.5e-4 1.48575,-7.5e-4 2.9715,-7.5e-4 4.45725,-7.5e-4 C 13.1145,34.23375 13.15725,34.104 13.2,33.9735 10.5015,32.74425 7.80225,31.5165 5.10225,30.288 c 0.1035,-0.222 0.20775,-0.44475 0.312,-0.666 2.5875,1.10625 5.17575,2.214 7.76325,3.32175 0.048,-0.078 0.09525,-0.1575 0.14325,-0.2355 C 10.4925,29.81325 7.665,26.9175 4.83675,24.02175 4.9995,23.856 5.163,23.6895 5.325,23.5245 c 3.10875,3.09 6.2175,6.18 9.3255,9.27 0.08625,-0.045 0.17325,-0.0885 0.2595,-0.13275 -1.06575,-2.91675 -2.13225,-5.83275 -3.19875,-8.7495 0.2175,-0.084 0.4365,-0.168 0.654,-0.252 1.089,2.7915 2.178,5.58225 3.26625,8.37375 0.1215,-0.021 0.243,-0.04125 0.3645,-0.063 l 0,-31.89675 c 0.20925,-0.0255 0.41925,-0.05025 0.62925,-0.07575 0.07275,0.5805 0.21,1.16175 0.21,1.743 0.0068,8.844 -0.0053,17.688 -0.01275,26.532 -7.5e-4,1.0245 0,2.04825 0.3255,3.13575 1.16175,-2.58225 2.3235,-5.1645 3.4845,-7.74675 0.15525,0.0585 0.30825,0.11775 0.4635,0.17625 0.18975,1.53975 -0.891,2.742 -1.38825,4.08825 -0.51,1.3755 -1.146,2.703 -1.48275,4.2135 2.91675,-2.91675 5.83275,-5.83275 8.7495,-8.75025 0.19425,0.19275 0.39,0.3855 0.5835,0.57825 -2.83725,3.20025 -6.0585,6.051 -8.8665,9.456 2.838,-1.04325 5.676,-2.08725 8.51475,-3.13125 0.08175,0.2205 0.16425,0.44175 0.24525,0.663 -2.58075,1.00725 -5.16,2.01525 -7.74,3.021 0.0015,0.147 0.0015,0.294 0.0015,0.44025 l 12.18,0 c -0.01575,0.243 -0.03375,0.48225 -0.0525,0.723 l 0,0 z"
             id="path3608"
             inkscape:connector-curvature="0" />
        </g>
        <path
           d="m 53.358,25.43625 c 6.339,3.50325 12.67725,7.0065 19.01625,10.5105"
           id="path3610"
           inkscape:connector-curvature="0"
           style="stroke:#ffffff;stroke-width:0.5" />
        <path
           d="M 40.18275,18.15525 C 44.2605,20.38575 48.1185,23.025 52.3695,24.93"
           id="path3612"
           inkscape:connector-curvature="0"
           style="stroke:#ffffff;stroke-width:0.5" />
        <path
           d="M 40.18275,18.15525 0,38.145"
           id="path3614"
           inkscape:connector-curvature="0"
           style="stroke:#ffffff;stroke-width:0.5" />
        <path
           d="M 72.37425,35.94675 32.38875,55.539"
           id="path3616"
           inkscape:connector-curvature="0"
           style="stroke:#ffffff;stroke-width:0.5" />
        <path
           d="M 32.38875,55.539 0,38.145"
           id="path3618"
           inkscape:connector-curvature="0"
           style="stroke:#ffffff;stroke-width:0.5" />
        <path
           d="m 52.3815,24.89625 -19.99275,10.05"
           id="path3620"
           inkscape:connector-curvature="0"
           style="stroke:#ffffff;stroke-width:0.5" />
        <path
           d="M 53.412,25.46625 32.38875,35.5965"
           id="path3622"
           inkscape:connector-curvature="0"
           style="stroke:#ffffff;stroke-width:0.5" />
        <path
           d="m 52.3815,24.89625 0,1.0665"
           id="path3624"
           inkscape:connector-curvature="0"
           style="stroke:#ffffff;stroke-width:0.5" />
        <path
           d="m 0,38.145 0,0.9225"
           id="path3626"
           inkscape:connector-curvature="0"
           style="stroke:#ffffff;stroke-width:0.5" />
        <path
           d="M 0,39.0675 32.38875,56.61"
           id="path3628"
           inkscape:connector-curvature="0"
           style="stroke:#ffffff;stroke-width:0.5" />
        <path
           d="m 32.38875,56.61 0,-1.071"
           id="path3630"
           inkscape:connector-curvature="0"
           style="stroke:#ffffff;stroke-width:0.5" />
        <path
           d="M 32.38875,56.61 72.37425,36.96825"
           id="path3632"
           inkscape:connector-curvature="0"
           style="stroke:#ffffff;stroke-width:0.5" />
        <path
           d="m 72.37425,36.96825 0,-1.0215"
           id="path3634"
           inkscape:connector-curvature="0"
           style="stroke:#ffffff;stroke-width:0.5" />
      </g>
    </g>
  </g>
</svg>
