<?xml version="1.0" encoding="UTF-8" standalone="no"?>
<svg
   xmlns:sketch="http://www.bohemiancoding.com/sketch/ns"
   xmlns:dc="http://purl.org/dc/elements/1.1/"
   xmlns:cc="http://creativecommons.org/ns#"
   xmlns:rdf="http://www.w3.org/1999/02/22-rdf-syntax-ns#"
   xmlns:svg="http://www.w3.org/2000/svg"
   xmlns="http://www.w3.org/2000/svg"
   xmlns:sodipodi="http://sodipodi.sourceforge.net/DTD/sodipodi-0.dtd"
   xmlns:inkscape="http://www.inkscape.org/namespaces/inkscape"
   width="90px"
   height="90px"
   viewBox="0 0 90 90"
   version="1.1"
   id="svg3816"
   inkscape:version="0.48.4 r9939"
   sodipodi:docname="plasma.svg">
  <metadata
     id="metadata3854">
    <rdf:RDF>
      <cc:Work
         rdf:about="">
        <dc:format>image/svg+xml</dc:format>
        <dc:type
           rdf:resource="http://purl.org/dc/dcmitype/StillImage" />
      </cc:Work>
    </rdf:RDF>
  </metadata>
  <sodipodi:namedview
     pagecolor="#ffffff"
     bordercolor="#666666"
     borderopacity="1"
     objecttolerance="10"
     gridtolerance="10"
     guidetolerance="10"
     inkscape:pageopacity="0"
     inkscape:pageshadow="2"
     inkscape:window-width="640"
     inkscape:window-height="480"
     id="namedview3852"
     showgrid="false"
     inkscape:zoom="2.6222222"
     inkscape:cx="45"
     inkscape:cy="45"
     inkscape:window-x="65"
     inkscape:window-y="24"
     inkscape:window-maximized="0"
     inkscape:current-layer="svg3816" />
  <!-- Generator: Sketch 3.1 (8751) - http://www.bohemiancoding.com/sketch -->
  <title
     id="title3818">Oval 1 + fat_beam</title>
  <desc
     id="desc3820">Created with Sketch.</desc>
  <defs
     id="defs3822" />
  <circle
     id="Oval-1"
     sketch:type="MSShapeGroup"
     cx="45"
     cy="45"
     r="45"
     sodipodi:cx="45"
     sodipodi:cy="45"
     sodipodi:rx="45"
     sodipodi:ry="45"
     style="fill:#4d4d4d;stroke:none"
     transform="matrix(0.93220339,0,0,0.94067797,3.0508475,2.6694915)" />
  <g
     id="fat_beam"
     transform="matrix(0,0.89021113,-0.84055995,0,71.057306,17.403527)"
     sketch:type="MSShapeGroup"
     style="fill:#ffffff;stroke:none">
    <g
       id="Group">
      <g
         transform="translate(0,20.446809)"
         id="Shape">
        <g
           id="g3830">
          <path
             d="m -0.00329787,0.57053191 16.91544687,0 6.278489,7.90302129 -5.807553,-2.9819362 -17.38638287,0 0,-4.92108509 z"
             id="path3832"
             inkscape:connector-curvature="0" />
          <path
             d="m 23.190638,8.7301277 c -0.03957,0 -0.07981,-0.00923 -0.116744,-0.028362 l -5.752809,-2.9542341 -17.32438287,0 c -0.14180851,0 -0.25657447,-0.1147659 -0.25657447,-0.2565745 l 0,-4.92042549 c 0,-0.14180851 0.11476596,-0.25657446 0.25657447,-0.25657446 l 16.91544687,0 c 0.07849,0 0.151702,0.035617 0.200511,0.0969574 l 6.240893,7.85487235 c 0.06464,0.04683 0.106192,0.1226809 0.106192,0.207766 0,0.1437872 -0.125979,0.2598723 -0.262511,0.2565745 -0.002,0 -0.0046,0 -0.0066,0 l 0,0 z M 0.2532766,5.2350425 l 17.1298084,0 c 0.04089,0 0.08113,0.00989 0.116745,0.028362 l 4.750255,2.4391063 -5.461936,-6.87474464 -16.5348724,0 0,4.40727654 0,0 z"
             id="path3834"
             inkscape:connector-curvature="0" />
        </g>
        <g
           transform="translate(0,12.531915)"
           id="g3836">
          <path
             d="m -0.00329787,8.0039362 16.91544687,0 6.278489,-7.90302131 -5.807553,2.98325531 -17.38638287,0 0,4.919766 z"
             id="path3838"
             inkscape:connector-curvature="0" />
          <path
             d="m 16.912149,8.2618298 -16.91544687,0 c -0.14180851,0 -0.25657447,-0.114766 -0.25657447,-0.2578936 l 0,-4.919766 c 0,-0.1418085 0.11476596,-0.2578936 0.25657447,-0.2578936 l 17.32438287,0 5.752809,-2.95423405 C 23.180745,-0.18204255 23.312,-0.15631915 23.38917,-0.062 23.46634,0.03231915 23.467,0.16621277 23.39177,0.25987234 L 17.112,8.1628936 c -0.04815,0.06266 -0.122021,0.098936 -0.199851,0.098936 l 0,0 z M 0.2532766,7.7480213 l 16.5348724,0 L 22.250085,0.87393617 17.49983,3.312383 c -0.03628,0.017809 -0.07651,0.028362 -0.116745,0.028362 l -17.1298084,0 0,4.4072766 0,0 z"
             id="path3840"
             inkscape:connector-curvature="0" />
        </g>
      </g>
      <g
         transform="translate(0,4.617021)"
         id="g3842">
        <path
           d="m 62.003957,26.373085 -7.984148,2.037426 -6.165703,22.935383 -0.209744,0.785553 -22.521171,-25.055256 c -0.16951,-0.06134 -0.317914,-0.102234 -0.441255,-0.102234 l -24.68589345,0 0,-1.098851 24.68655345,0 c 0.07717,0 0.164234,-0.01451 0.261191,-0.04617 L 47.854106,0.41882979 54.019809,24.30466 l 7.984148,2.068425"
           id="path3844"
           inkscape:connector-curvature="0" />
        <path
           d="m 47.644362,52.388681 c -0.07189,0 -0.141809,-0.031 -0.190617,-0.08508 L 24.976766,27.296489 c -0.131915,-0.04353 -0.228213,-0.06596 -0.29483,-0.06596 l -24.68589345,0 c -0.14180851,0 -0.25723404,-0.114766 -0.25723404,-0.257234 l 0,-1.098192 c 0,-0.141808 0.11476596,-0.256574 0.25723404,-0.256574 l 24.68655345,0 c 0.03562,0 0.07585,-0.0053 0.120702,-0.01583 L 47.664149,0.248 c 0.06332,-0.0705745 0.160936,-0.10025532 0.252617,-0.0771702 0.09168,0.0217659 0.163574,0.0936596 0.186659,0.18468085 l 6.126788,23.73940435 7.839042,2.03017 c 0.113447,0.02968 0.193256,0.131915 0.193256,0.249319 -0.0013,0.116745 -0.07981,0.218979 -0.194575,0.248 l -7.840361,2.00049 -6.335873,23.57517 c -0.0244,0.09168 -0.0963,0.160936 -0.187979,0.184021 -0.01979,0.0053 -0.04023,0.0066 -0.05936,0.0066 l 0,0 z M 0.25195745,26.716723 l 24.42997855,0 c 0.14049,0 0.303404,0.03694 0.528319,0.118064 0.03957,0.01385 0.07519,0.0376 0.103553,0.06926 l 22.205235,24.703702 0.08772,-0.328468 6.164383,-22.935383 c 0.0244,-0.08904 0.09432,-0.158298 0.184021,-0.181383 L 60.973699,26.37177 53.953848,24.553323 C 53.863489,24.529574 53.794234,24.459 53.771149,24.369298 L 47.725489,0.94582979 25.134404,26.000425 c -0.03034,0.0343 -0.06925,0.05936 -0.112127,0.07255 -0.121362,0.03891 -0.235469,0.05804 -0.339681,0.05804 l -24.43063855,0 0,0.585702 0,0 z"
           id="path3846"
           inkscape:connector-curvature="0" />
      </g>
      <path
         d="m 57.654064,62.094319 c -0.566575,0 -1.026958,-0.459723 -1.026958,-1.026957 l 0,-24.548043 c 0,-0.567894 0.459724,-1.026957 1.026958,-1.026957 0.565255,0 1.025638,0.458404 1.025638,1.026957 l 0,24.548702 c -6.59e-4,0.566575 -0.460383,1.026298 -1.025638,1.026298 l 0,0 z"
         id="path3848"
         inkscape:connector-curvature="0" />
      <path
         d="m 57.654064,26.508957 c -0.566575,0 -1.026958,-0.459723 -1.026958,-1.026297 l 0,-24.5500217 c 0,-0.56723404 0.459724,-1.02629787 1.026958,-1.02629787 0.565255,0 1.025638,0.45906383 1.025638,1.02629787 l 0,24.5500217 c -6.59e-4,0.566574 -0.460383,1.026297 -1.025638,1.026297 l 0,0 z"
         id="path3850"
         inkscape:connector-curvature="0" />
    </g>
  </g>
</svg>
