<?xml version="1.0" encoding="UTF-8" standalone="no"?>
<svg width="90px" height="90px" viewBox="0 0 90 90" version="1.1" xmlns="http://www.w3.org/2000/svg" xmlns:xlink="http://www.w3.org/1999/xlink" xmlns:sketch="http://www.bohemiancoding.com/sketch/ns">
    <!-- Generator: Sketch 3.1 (8751) - http://www.bohemiancoding.com/sketch -->
    <title>Oval 1 + plan</title>
    <desc>Created with Sketch.</desc>
    <defs></defs>
    <g id="Page-1" stroke="none" stroke-width="1" fill="none" fill-rule="evenodd" sketch:type="MSPage">
        <g id="Oval-1-+-plan" sketch:type="MSLayerGroup">
            <circle id="Oval-1" fill="#000000" sketch:type="MSShapeGroup" cx="45" cy="45" r="45"></circle>
            <g id="plan" transform="translate(9.000000, 17.000000)" fill="#FFFFFF" sketch:type="MSShapeGroup">
                <path d="M64.2316667,28.9057703 L64.2316667,6.30843243 L30.2033333,6.30843243 L31.2488333,5.60654054 L27.452875,-0.174756757 L17.7940417,6.30843243 L6.16179167,6.30843243 L6.16179167,14.1151892 L0.336458333,18.0250135 L4.133125,23.8063108 L6.16179167,22.4447838 L6.16179167,51.1808108 L23.5265833,51.1808108 L19.8815,53.175473 L43.823875,53.175473 L67.7648333,53.175473 L67.7648333,40.0737297 L67.7648333,26.9734189 L64.2316667,28.9057703 L64.2316667,28.9057703 Z M62.9077917,7.64704054 L62.9077917,29.6305811 L55.638875,33.6084459 L55.638875,29.3018378 L61.2085,29.3018378 L61.2085,28.2977027 L55.638875,28.2977027 L55.638875,22.6080811 L61.2085,22.6080811 L61.2085,21.6046622 L55.638875,21.6046622 L55.638875,15.9150405 L61.2085,15.9150405 L61.2085,14.9109054 L55.638875,14.9109054 L55.638875,9.33158108 L54.6465,9.33158108 L54.6465,14.9109054 L49.0195,14.9109054 L49.0195,9.33158108 L48.027125,9.33158108 L48.027125,14.9109054 L42.4008333,14.9109054 L42.4008333,9.33158108 L41.40775,9.33158108 L41.40775,14.9109054 L35.7814583,14.9109054 L35.7814583,9.33158108 L34.78625,9.33158108 L34.78625,14.9109054 L29.15925,14.9109054 L29.15925,9.33158108 L28.1661667,9.33158108 L28.1661667,14.9109054 L22.539875,14.9109054 L22.539875,11.4522973 L28.2086667,7.64775676 L62.9077917,7.64775676 L62.9077917,7.64704054 Z M42.3994167,47.5187973 L48.0257083,44.4397838 L48.0257083,47.6427027 L42.3994167,47.6427027 L42.3994167,47.5187973 L42.3994167,47.5187973 Z M49.0187917,43.8961757 L51.2259583,42.6879189 L54.6457917,42.6879189 L54.6457917,47.6419865 L52.0887083,47.6419865 L49.0187917,47.6419865 L49.0187917,43.8961757 L49.0187917,43.8961757 Z M53.0605417,41.6845 L54.6457917,40.8171622 L54.6457917,41.6845 L53.0605417,41.6845 L53.0605417,41.6845 Z M55.638875,42.6886351 L61.2085,42.6886351 L61.2085,41.6852162 L55.638875,41.6852162 L55.638875,40.2742703 L62.005375,36.7905946 L62.005375,42.2166486 L62.005375,47.6427027 L55.638875,47.6427027 L55.638875,42.6886351 L55.638875,42.6886351 Z M54.6457917,21.6046622 L49.0187917,21.6046622 L49.0187917,15.9150405 L54.6457917,15.9150405 L54.6457917,21.6046622 L54.6457917,21.6046622 Z M54.6457917,22.6080811 L54.6457917,28.2977027 L49.0187917,28.2977027 L49.0187917,22.6080811 L54.6457917,22.6080811 L54.6457917,22.6080811 Z M54.6457917,29.3018378 L54.6457917,34.1513378 L53.1108333,34.9907432 L49.0187917,34.9907432 L49.0187917,29.3018378 L54.6457917,29.3018378 L54.6457917,29.3018378 Z M51.2769583,35.9948784 L49.0187917,37.2310676 L49.0187917,35.9948784 L51.2769583,35.9948784 L51.2769583,35.9948784 Z M48.0264167,21.6046622 L42.400125,21.6046622 L42.400125,15.9150405 L48.0264167,15.9150405 L48.0264167,21.6046622 L48.0264167,21.6046622 Z M48.0264167,22.6080811 L48.0264167,28.2977027 L42.400125,28.2977027 L42.400125,22.6080811 L48.0264167,22.6080811 L48.0264167,22.6080811 Z M48.0264167,29.3018378 L48.0264167,34.9907432 L42.400125,34.9907432 L42.400125,29.3018378 L48.0264167,29.3018378 L48.0264167,29.3018378 Z M48.0264167,35.9948784 L48.0264167,37.7732432 L43.8231667,40.0737297 L42.3994167,40.852973 L42.3994167,35.9948784 L48.0264167,35.9948784 L48.0264167,35.9948784 Z M41.4063333,21.6046622 L35.7800417,21.6046622 L35.7800417,15.9150405 L41.4063333,15.9150405 L41.4063333,21.6046622 L41.4063333,21.6046622 Z M41.4063333,22.6080811 L41.4063333,28.2977027 L35.7800417,28.2977027 L35.7800417,22.6080811 L41.4063333,22.6080811 L41.4063333,22.6080811 Z M41.4063333,29.3018378 L41.4063333,34.9907432 L35.7800417,34.9907432 L35.7800417,29.3018378 L41.4063333,29.3018378 L41.4063333,29.3018378 Z M41.4063333,35.9948784 L41.4063333,41.3958649 L40.8800417,41.6845 L35.7800417,41.6845 L35.7800417,35.9948784 L41.4063333,35.9948784 L41.4063333,35.9948784 Z M39.0440417,42.6886351 L35.7800417,44.4755946 L35.7800417,42.6886351 L39.0440417,42.6886351 L39.0440417,42.6886351 Z M34.78625,21.6046622 L29.15925,21.6046622 L29.15925,15.9150405 L34.78625,15.9150405 L34.78625,21.6046622 L34.78625,21.6046622 Z M34.78625,22.6080811 L34.78625,28.2977027 L29.15925,28.2977027 L29.15925,22.6080811 L34.78625,22.6080811 L34.78625,22.6080811 Z M34.78625,29.3018378 L34.78625,34.9907432 L29.15925,34.9907432 L29.15925,29.3018378 L34.78625,29.3018378 L34.78625,29.3018378 Z M34.78625,35.9948784 L34.78625,41.6845 L29.15925,41.6845 L29.15925,35.9948784 L34.78625,35.9948784 L34.78625,35.9948784 Z M34.78625,42.6886351 L34.78625,45.0192027 L29.15925,48.0982162 L29.15925,42.6886351 L34.78625,42.6886351 L34.78625,42.6886351 Z M15.9205,35.9948784 L21.5475,35.9948784 L21.5475,41.6845 L15.9205,41.6845 L15.9205,35.9948784 L15.9205,35.9948784 Z M15.9205,34.9907432 L15.9205,29.3018378 L21.5475,29.3018378 L21.5475,34.9907432 L15.9205,34.9907432 L15.9205,34.9907432 Z M15.9205,28.2977027 L15.9205,22.6080811 L21.5475,22.6080811 L21.5475,28.2977027 L15.9205,28.2977027 L15.9205,28.2977027 Z M15.9205,21.6046622 L15.9205,15.9150405 L21.5475,15.9150405 L21.5475,21.6046622 L15.9205,21.6046622 L15.9205,21.6046622 Z M17.3874583,14.9109054 L21.5475,12.1190946 L21.5475,14.9109054 L17.3874583,14.9109054 L17.3874583,14.9109054 Z M22.539875,35.9948784 L28.1661667,35.9948784 L28.1661667,41.6845 L22.539875,41.6845 L22.539875,35.9948784 L22.539875,35.9948784 Z M22.539875,34.9907432 L22.539875,29.3018378 L28.1661667,29.3018378 L28.1661667,34.9907432 L22.539875,34.9907432 L22.539875,34.9907432 Z M22.539875,28.2977027 L22.539875,22.6080811 L28.1661667,22.6080811 L28.1661667,28.2977027 L22.539875,28.2977027 L22.539875,28.2977027 Z M22.539875,21.6046622 L22.539875,15.9150405 L28.1661667,15.9150405 L28.1661667,21.6046622 L22.539875,21.6046622 L22.539875,21.6046622 Z M7.48566667,7.64704054 L15.7986667,7.64704054 L7.48566667,13.2270811 L7.48566667,7.64704054 L7.48566667,7.64704054 Z M7.48566667,49.8422027 L7.48566667,21.5573919 L14.9267083,16.5617838 L14.9267083,21.6046622 L9.35708333,21.6046622 L9.35708333,22.6080811 L14.9274167,22.6080811 L14.9274167,28.2977027 L9.35708333,28.2977027 L9.35708333,29.3018378 L14.9274167,29.3018378 L14.9274167,34.9907432 L9.35708333,34.9907432 L9.35708333,35.9941622 L14.9274167,35.9941622 L14.9274167,41.6837838 L9.35708333,41.6837838 L9.35708333,42.6872027 L14.9274167,42.6872027 L14.9274167,48.2650946 L15.9205,48.2650946 L15.9205,42.6872027 L21.5475,42.6872027 L21.5475,48.2650946 L22.5405833,48.2650946 L22.5405833,42.6872027 L28.166875,42.6872027 L28.166875,48.2650946 L28.8518333,48.2650946 L25.9731667,49.8407703 L7.48566667,49.8407703 L7.48566667,49.8422027 Z" id="Shape"></path>
            </g>
        </g>
    </g>
</svg>