<?xml version="1.0" encoding="UTF-8" standalone="no"?>
<svg
   xmlns:sketch="http://www.bohemiancoding.com/sketch/ns"
   xmlns:dc="http://purl.org/dc/elements/1.1/"
   xmlns:cc="http://creativecommons.org/ns#"
   xmlns:rdf="http://www.w3.org/1999/02/22-rdf-syntax-ns#"
   xmlns:svg="http://www.w3.org/2000/svg"
   xmlns="http://www.w3.org/2000/svg"
   xmlns:sodipodi="http://sodipodi.sourceforge.net/DTD/sodipodi-0.dtd"
   xmlns:inkscape="http://www.inkscape.org/namespaces/inkscape"
   width="90px"
   height="90px"
   viewBox="0 0 90 90"
   version="1.1"
   id="svg3382"
   inkscape:version="0.48.4 r9939"
   sodipodi:docname="traceur.svg">
  <metadata
     id="metadata3397">
    <rdf:RDF>
      <cc:Work
         rdf:about="">
        <dc:format>image/svg+xml</dc:format>
        <dc:type
           rdf:resource="http://purl.org/dc/dcmitype/StillImage" />
      </cc:Work>
    </rdf:RDF>
  </metadata>
  <sodipodi:namedview
     pagecolor="#ffffff"
     bordercolor="#666666"
     borderopacity="1"
     objecttolerance="10"
     gridtolerance="10"
     guidetolerance="10"
     inkscape:pageopacity="0"
     inkscape:pageshadow="2"
     inkscape:window-width="640"
     inkscape:window-height="480"
     id="namedview3395"
     showgrid="false"
     inkscape:zoom="2.6222222"
     inkscape:cx="45"
     inkscape:cy="45"
     inkscape:window-x="65"
     inkscape:window-y="24"
     inkscape:window-maximized="0"
     inkscape:current-layer="Page-1" />
  <!-- Generator: Sketch 3.1 (8751) - http://www.bohemiancoding.com/sketch -->
  <title
     id="title3384">Oval 1 + plan</title>
  <desc
     id="desc3386">Created with Sketch.</desc>
  <defs
     id="defs3388" />
  <g
     id="Page-1"
     stroke="none"
     stroke-width="1"
     fill="none"
     fill-rule="evenodd"
     sketch:type="MSPage">
    <circle
       style="fill:#4d4d4d"
       sodipodi:ry="45"
       sodipodi:rx="45"
       sodipodi:cy="45"
       sodipodi:cx="45"
       r="45"
       cy="45"
       cx="45"
       sketch:type="MSShapeGroup"
       id="Oval-1"
       transform="matrix(0.95762712,0,0,0.95762712,1.9067797,1.9067797)" />
    <path
       style="fill:#ffffff"
       d="m 73.231667,45.90577 0,-22.597338 -34.028334,0 1.0455,-0.701892 -3.795958,-5.781297 -9.658833,6.483189 -11.63225,0 0,7.806757 -5.8253337,3.909824 3.7966667,5.781298 2.028667,-1.361527 0,28.736027 17.364791,0 -3.645083,1.994662 23.942375,0 23.940958,0 0,-13.101743 0,-13.100311 -3.533166,1.932351 0,0 z m -1.323875,-21.25873 0,21.983541 -7.268917,3.977865 0,-4.306608 5.569625,0 0,-1.004135 -5.569625,0 0,-5.689622 5.569625,0 0,-1.003419 -5.569625,0 0,-5.689621 5.569625,0 0,-1.004136 -5.569625,0 0,-5.579324 -0.992375,0 0,5.579324 -5.627,0 0,-5.579324 -0.992375,0 0,5.579324 -5.626292,0 0,-5.579324 -0.993083,0 0,5.579324 -5.626292,0 0,-5.579324 -0.995208,0 0,5.579324 -5.627,0 0,-5.579324 -0.993083,0 0,5.579324 -5.626292,0 0,-3.458608 5.668792,-3.80454 34.699125,0 0,-7.17e-4 z m -20.508375,39.871757 5.626291,-3.079013 0,3.202919 -5.626291,0 0,-0.123906 0,0 z m 6.619375,-3.622621 2.207166,-1.208257 3.419834,0 0,4.954068 -2.557084,0 -3.069916,0 0,-3.745811 0,0 z m 4.04175,-2.211676 1.58525,-0.867338 0,0.867338 -1.58525,0 0,0 z m 2.578333,1.004135 5.569625,0 0,-1.003419 -5.569625,0 0,-1.410946 6.3665,-3.483675 0,5.426054 0,5.426054 -6.3665,0 0,-4.954068 0,0 z m -0.993083,-21.083973 -5.627,0 0,-5.689621 5.627,0 0,5.689621 0,0 z m 0,1.003419 0,5.689622 -5.627,0 0,-5.689622 5.627,0 0,0 z m 0,6.693757 0,4.8495 -1.534959,0.839405 -4.092041,0 0,-5.688905 5.627,0 0,0 z m -3.368834,6.69304 -2.258166,1.23619 0,-1.23619 2.258166,0 0,0 z m -3.250541,-14.390216 -5.626292,0 0,-5.689621 5.626292,0 0,5.689621 0,0 z m 0,1.003419 0,5.689622 -5.626292,0 0,-5.689622 5.626292,0 0,0 z m 0,6.693757 0,5.688905 -5.626292,0 0,-5.688905 5.626292,0 0,0 z m 0,6.69304 0,1.778365 -4.20325,2.300487 -1.42375,0.779243 0,-4.858095 5.627,0 0,0 z m -6.620084,-14.390216 -5.626291,0 0,-5.689621 5.626291,0 0,5.689621 0,0 z m 0,1.003419 0,5.689622 -5.626291,0 0,-5.689622 5.626291,0 0,0 z m 0,6.693757 0,5.688905 -5.626291,0 0,-5.688905 5.626291,0 0,0 z m 0,6.69304 0,5.400987 -0.526291,0.288635 -5.1,0 0,-5.689622 5.626291,0 0,0 z m -2.362291,6.693757 -3.264,1.78696 0,-1.78696 3.264,0 0,0 z m -4.257792,-21.083973 -5.627,0 0,-5.689621 5.627,0 0,5.689621 0,0 z m 0,1.003419 0,5.689622 -5.627,0 0,-5.689622 5.627,0 0,0 z m 0,6.693757 0,5.688905 -5.627,0 0,-5.688905 5.627,0 0,0 z m 0,6.69304 0,5.689622 -5.627,0 0,-5.689622 5.627,0 0,0 z m 0,6.693757 0,2.330568 -5.627,3.079013 0,-5.409581 5.627,0 0,0 z m -18.86575,-6.693757 5.627,0 0,5.689622 -5.627,0 0,-5.689622 0,0 z m 0,-1.004135 0,-5.688905 5.627,0 0,5.688905 -5.627,0 0,0 z m 0,-6.69304 0,-5.689622 5.627,0 0,5.689622 -5.627,0 0,0 z m 0,-6.693041 0,-5.689621 5.627,0 0,5.689621 -5.627,0 0,0 z m 1.466958,-6.693757 4.160042,-2.79181 0,2.79181 -4.160042,0 0,0 z m 5.152417,21.083973 5.626292,0 0,5.689622 -5.626292,0 0,-5.689622 0,0 z m 0,-1.004135 0,-5.688905 5.626292,0 0,5.688905 -5.626292,0 0,0 z m 0,-6.69304 0,-5.689622 5.626292,0 0,5.689622 -5.626292,0 0,0 z m 0,-6.693041 0,-5.689621 5.626292,0 0,5.689621 -5.626292,0 0,0 z M 16.485667,24.64704 l 8.313,0 -8.313,5.580041 0,-5.580041 0,0 z m 0,42.195163 0,-28.284811 7.441041,-4.995608 0,5.042878 -5.569625,0 0,1.003419 5.570334,0 0,5.689622 -5.570334,0 0,1.004135 5.570334,0 0,5.688905 -5.570334,0 0,1.003419 5.570334,0 0,5.689622 -5.570334,0 0,1.003419 5.570334,0 0,5.577892 0.993083,0 0,-5.577892 5.627,0 0,5.577892 0.993083,0 0,-5.577892 5.626292,0 0,5.577892 0.684958,0 -2.878666,1.575675 -18.4875,0 0,0.0014 z"
       id="Shape"
       inkscape:connector-curvature="0" />
  </g>
</svg>
