<?xml version="1.0" encoding="UTF-8" standalone="no"?>
<svg width="105px" height="105px" viewBox="0 0 105 105" version="1.1" xmlns="http://www.w3.org/2000/svg" xmlns:xlink="http://www.w3.org/1999/xlink" xmlns:sketch="http://www.bohemiancoding.com/sketch/ns">
    <!-- Generator: Sketch 3.1 (8751) - http://www.bohemiancoding.com/sketch -->
    <title>Oval 1 + apron-black</title>
    <desc>Created with Sketch.</desc>
    <defs></defs>
    <g id="Page-1" stroke="none" stroke-width="1" fill="none" fill-rule="evenodd" sketch:type="MSPage">
        <g id="Oval-1-+-apron-black" sketch:type="MSLayerGroup" transform="translate(1.000000, 1.000000)">
            <circle id="Oval-1" stroke="#979797" fill="#D8D8D8" sketch:type="MSShapeGroup" cx="51.5" cy="51.5" r="51.5"></circle>
            <g id="apron-black" transform="translate(9.000000, 7.000000)" sketch:type="MSShapeGroup">
                <g id="g3387" transform="translate(44.683576, 45.794561) rotate(203.128917) translate(-44.683576, -45.794561) translate(41.622366, 34.404414)" fill="#000000">
                    <path d="M2.67185952,3.72287959 C3.41522327,3.72287959 4.01981218,3.11625827 4.01981218,2.3703956 C4.01981218,1.62478888 3.41522327,1.01816756 2.67185952,1.01816756 C1.92875087,1.01816756 1.32416196,1.62478888 1.32416196,2.3703956 C1.32416196,3.11625827 1.92875087,3.72287959 2.67185952,3.72287959 L2.67185952,3.72287959 Z M2.67185952,1.40440873 C3.2027243,1.40440873 3.63460996,1.83774624 3.63460996,2.37013964 C3.63460996,2.90304495 3.2027243,3.33638246 2.67185952,3.33638246 C2.14099474,3.33638246 1.70910908,2.90304495 1.70910908,2.37013964 C1.70910908,1.83774624 2.14099474,1.40440873 2.67185952,1.40440873 L2.67185952,1.40440873 Z" id="path3157"></path>
                    <rect id="rect3159" x="2.55100806" y="9.47045946" width="0.318365806" height="6.27584287"></rect>
                    <rect id="rect3161" x="2.55100806" y="5.631084" width="0.318365806" height="2.19945032"></rect>
                    <path d="M5.04353171,17.3782583 C4.25603553,16.6710453 4.12899532,15.4219685 4.12746472,15.4219685 L4.12746472,4.38990709 C4.75118619,3.93609291 5.15909238,3.20072453 5.15909238,2.3703956 C5.15909238,0.994619392 4.04328145,-0.124942492 2.67185952,-0.124942492 C1.30043758,-0.124942492 0.184626658,0.994619392 0.184626658,2.3703956 C0.184626658,3.18511107 0.577481899,3.90793749 1.18130551,4.36354338 L1.0848774,15.6812544 C1.01880629,16.6434018 0.813705246,17.0718761 0.503247565,17.7199627 C0.367023734,18.0040765 0.212687746,18.326584 0.0466171213,18.7432843 C-0.53603312,20.2045506 0.75477696,21.8224634 1.0193165,22.131917 C1.02518381,22.138572 1.65094609,22.8345217 2.04405643,22.8345217 C2.17977006,22.8345217 2.30068785,22.7664378 2.36752426,22.6525363 C2.48742164,22.4482816 2.36828956,22.2335325 2.32364692,22.1526497 C1.94023041,21.4592585 1.70579277,20.4878965 1.88385313,20.3292023 C2.09966841,20.1367216 2.80553234,19.9212046 3.42695791,19.9212046 C3.76088486,19.9212046 3.89328218,19.9857062 3.92593508,20.005159 C4.06522012,20.0942325 4.15501561,20.7533253 4.19353583,21.0346235 C4.26828036,21.5836542 4.33307597,22.0579451 4.7529719,22.0579451 L4.82108381,22.052314 C5.31904059,21.9691275 5.42184621,21.6724718 5.85832369,20.4121328 C6.30781131,19.1169835 5.70041629,17.9679864 5.04353171,17.3782583 L5.04353171,17.3782583 Z M0.857837685,2.3703956 C0.857837685,1.36678285 1.67160926,0.550275672 2.67185952,0.550275672 C3.67236488,0.550275672 4.48613645,1.36678285 4.48613645,2.3703956 C4.48613645,2.99442209 4.17134206,3.54601236 3.69277295,3.87415098 L3.6152223,3.92175924 C3.03180676,4.28035691 2.27466756,4.2724222 1.70043565,3.90461003 L1.64201756,3.86698415 C1.16855047,3.53807765 0.857837685,2.99032675 0.857837685,2.3703956 L0.857837685,2.3703956 Z M2.23334123,4.82478035 C2.24405547,4.82657206 2.2542595,4.82785185 2.26497373,4.82964356 C2.39788125,4.85191193 2.53308468,4.8662456 2.67185952,4.8662456 C2.79660381,4.8662456 2.9182869,4.8539596 3.03818428,4.83604252 C3.05068422,4.83425081 3.06292905,4.8324591 3.07517389,4.83041143 C3.2050202,4.80916689 3.3318053,4.7789638 3.45425369,4.73801046 L3.45450879,4.73801046 L3.4557843,15.4521716 C3.45910061,15.4895415 3.51292688,16.0457391 3.7744052,16.6759086 C3.41063145,16.5151667 3.05170462,16.4550165 2.69966551,16.5005771 C2.29048381,16.5527926 1.89278166,16.7445054 1.50885494,17.0734119 C1.62926252,16.7084153 1.7180376,16.2886435 1.75757823,15.7071061 L1.85171043,4.72495659 C1.85604714,4.72649234 1.86063895,4.72700425 1.86497567,4.72854 C1.98385264,4.7697493 2.10681123,4.80200005 2.23334123,4.82478035 L2.23334123,4.82478035 Z M5.21878597,20.201735 C5.06598059,20.6424953 4.96291986,20.9365915 4.88511411,21.1219053 C4.87618559,21.0609872 4.86776726,20.9993013 4.86036934,20.9432464 C4.77924728,20.349423 4.68741099,19.6759965 4.27210688,19.4261812 C4.07363845,19.3066486 3.78945615,19.2462424 3.42695791,19.2462424 C2.76726722,19.2462424 1.8422717,19.4625273 1.43666141,19.8247083 C1.05707142,20.1628293 1.11829561,20.8027253 1.28130502,21.369673 C0.916000669,20.8539169 0.333860629,19.8403218 0.671358996,18.9941235 C0.829011294,18.5986678 0.978245266,18.2871665 1.10987728,18.0127791 C1.12620373,17.9782247 1.14176488,17.945462 1.15783623,17.9119315 C1.66752764,17.2541185 2.19737202,16.8863063 2.73946123,16.8177095 C3.15170414,16.7644701 3.5823143,16.8891219 4.0261897,17.1796346 C4.17491347,17.4284261 4.36037176,17.6713306 4.5945543,17.8814724 C5.09735799,18.332983 5.56317206,19.2083606 5.21878597,20.201735 L5.21878597,20.201735 Z" id="path3163"></path>
                </g>
                <g id="g3378" transform="translate(41.084703, 43.026977) rotate(2.185800) translate(-41.084703, -43.026977) translate(35.686051, 35.246481)" fill="#000000">
                    <path d="M1.67037253,1.53117694 C1.61319589,1.56723333 1.596091,1.64246265 1.63202639,1.69983228 L4.4092921,6.13363091 C4.4452275,6.19100054 4.52030941,6.20832938 4.57748683,6.17227318 C4.63466406,6.13621699 4.65183059,6.06071585 4.6158952,6.00334641 L1.83862988,1.56954779 C1.80269448,1.51217815 1.72755113,1.49512074 1.67037253,1.53117694 L1.67037253,1.53117694 Z" id="path3147"></path>
                    <path d="M1.26265844,2.3324443 C1.20830677,2.36671867 1.19182027,2.4392323 1.22608306,2.49393351 L3.76172531,6.54198875 C3.79598948,6.59668997 3.86815572,6.61306565 3.92250739,6.57879148 C3.97702514,6.54441233 3.99345059,6.47217013 3.95918662,6.41746911 L1.42354614,2.36941387 C1.38917733,2.31454601 1.31717698,2.29806515 1.26265844,2.3324443 L1.26265844,2.3324443 Z" id="path3149"></path>
                    <path d="M2.56643518,1.51027833 C2.51191723,1.54465749 2.49543014,1.61717112 2.52969411,1.67187233 L5.06533557,5.71992757 C5.09959954,5.77462879 5.17176578,5.79100466 5.22628373,5.75662551 C5.2806354,5.72235095 5.29722713,5.65000416 5.26296296,5.59530294 L2.7273215,1.5472477 C2.69295329,1.49238004 2.62078685,1.47600397 2.56643518,1.51027833 L2.56643518,1.51027833 Z" id="path3151"></path>
                    <path d="M3.5370328,8.35245772 C3.57369947,8.41099462 3.63084882,8.44707642 3.69345572,8.46040707 C3.6987621,8.46147073 3.70328126,8.46164801 3.70852875,8.46299926 C3.71683286,8.46404322 3.72510163,8.4665054 3.73342636,8.46684223 C3.87669992,8.50049415 4.48107121,8.66911995 4.75774842,9.10045941 C4.67847167,9.2781748 4.68572471,9.49112559 4.79656042,9.6680706 C4.97258122,9.94908123 5.34384538,10.0339202 5.62408079,9.85720264 L5.91096499,9.67629252 L8.32501093,13.530225 L8.31428626,14.2267862 C8.3132458,14.2984042 8.34364472,14.3669375 8.39722233,14.4143454 L9.67050394,15.5379593 C9.75142366,15.6097683 9.8700189,15.6191994 9.96143615,15.5615509 L10.6743247,15.1120017 C10.7660743,15.0541444 10.8087056,14.9430429 10.7795399,14.8383647 L10.3225314,13.2000064 C10.3031944,13.1310072 10.2545647,13.0737321 10.189627,13.0437248 L9.55970455,12.7513905 L7.14565861,8.897458 L7.43237633,8.71665268 C7.71277802,8.53983037 7.7977693,8.16727581 7.6217485,7.88626518 C7.509868,7.70765218 7.31888272,7.60893483 7.12289141,7.60550235 C6.84386078,7.14819514 6.98322277,6.49079289 7.00731451,6.38859066 C7.02527337,6.33027161 7.0208504,6.26768649 6.9939867,6.20925004 C6.99080641,6.20195016 6.98970312,6.19426815 6.98579646,6.18765946 C6.98402963,6.18482696 6.9842652,6.18188219 6.98269665,6.17938062 L3.7615661,1.03696793 C3.16507978,0.0847002495 1.90788968,-0.202924784 0.95897933,0.395461916 C0.0100689777,0.993848814 -0.276925352,2.25547314 0.319456918,3.20757398 L3.52961918,8.33247563 C3.53271506,8.33889897 3.53306646,8.34612203 3.53703594,8.35245969 L3.5370328,8.35245772 Z M6.49233979,7.25330846 L4.71751551,8.37251899 C4.58716671,8.2813952 4.45239122,8.20911577 4.32697914,8.1532658 L6.46481314,6.80514009 C6.46057864,6.94274554 6.46737112,7.09573215 6.49233979,7.25330846 L6.49233979,7.25330846 Z M6.54769188,7.49455504 C6.57646395,7.59157172 6.61168476,7.68777863 6.6604446,7.78079869 L5.11848481,8.75316388 C5.05609563,8.66873861 4.9849726,8.59517176 4.91032553,8.52708395 L6.54769188,7.49455504 L6.54769188,7.49455504 Z M9.28927957,13.1655017 L9.88245229,13.4409953 L10.2603389,14.7942364 L9.85577608,15.0493559 L8.80422713,14.1209281 L8.81397219,13.465 C8.81448261,13.4176861 8.80139824,13.3712626 8.7763269,13.3312373 L6.32373398,9.41576587 L6.73245222,9.15802661 L9.18504513,13.0734981 C9.21011648,13.1135235 9.24623857,13.1456495 9.28928016,13.1655017 L9.28927957,13.1655017 Z M7.17267916,8.30205724 L6.67935834,8.61314707 L5.85743431,9.13145533 L5.36394741,9.44264995 C5.31175638,9.47556184 5.24219268,9.459639 5.20949569,9.40743916 C5.17658963,9.35490585 5.19245951,9.2851083 5.24465015,9.25219641 L7.0475645,8.11527216 C7.05038947,8.11349939 7.05822635,8.10971157 7.0772724,8.10421401 C7.0848423,8.10223441 7.09163675,8.09864553 7.09841529,8.09576971 C7.14049946,8.09040215 7.18434849,8.1085829 7.20837524,8.14693976 C7.24123851,8.19903442 7.22520333,8.26893695 7.17267916,8.30205842 L7.17267916,8.30205724 Z M0.746892776,2.93826069 C0.298535667,2.22247576 0.514269748,1.27426202 1.2276575,0.824397692 C1.9410433,0.374533368 2.88597632,0.590826422 3.33433342,1.30661135 L6.42101967,6.23438833 L3.83357882,7.86603767 L0.746892776,2.93826069 L0.746892776,2.93826069 Z" id="path3153"></path>
                    <path id="path3155" d="M9.80863583,14.5384098 C9.82682045,14.6037167 9.8943786,14.6416107 9.95902953,14.6234083 C10.0244259,14.6038093 10.0618833,14.5373777 10.0439083,14.4724036 L9.83368067,13.718124 C9.81549604,13.6528174 9.74810417,13.6148195 9.68328717,13.6331267 C9.67153773,13.6365796 9.66062539,13.6413681 9.65098516,13.6474467 C9.60627372,13.6756419 9.58350024,13.7307161 9.59840837,13.7841297 L9.80863583,14.5384098 L9.80863583,14.5384098 Z"></path>
                </g>
                <rect id="rect3393" fill="#A07031" x="33.1207547" y="45.7334395" width="20.2046678" height="15.9841571"></rect>
                <g id="switch4" transform="translate(-0.028463, -0.173110)" fill="#000000">
                    <g id="g8">
                        <g id="Capa_2" transform="translate(11.187400, 4.317311)">
                            <path d="M37.0044785,12.0884707 L26.6776473,12.0884707 L26.6776473,22.450017 L37.0044785,22.450017 L37.0044785,12.0884707 L37.0044785,12.0884707 Z M35.28334,20.7230926 L28.3987858,20.7230926 L28.3987858,13.8153951 L35.28334,13.8153951 L35.28334,20.7230926 L35.28334,20.7230926 Z" id="path12"></path>
                            <path d="M20.6536624,58.7154292 L43.0284634,58.7154292 L43.0284634,39.7192609 L20.6536624,39.7192609 L20.6536624,58.7154292 L20.6536624,58.7154292 Z M22.374801,41.4461853 L41.3073249,41.4461853 L41.3073249,43.6048408 L22.374801,43.6048408 L22.374801,41.4461853 L22.374801,41.4461853 Z M22.374801,44.468303 L41.3073249,44.468303 L41.3073249,56.9885048 L22.374801,56.9885048 L22.374801,44.468303 L22.374801,44.468303 Z" id="path14"></path>
                            <rect id="rect16" x="30.1199244" y="15.5423195" width="3.44227707" height="1.72692439"></rect>
                            <path d="M59.3792795,30.2211768 L51.6341561,30.2211768 L51.6341561,28.4942524 L50.7735868,28.4942524 C45.4174037,28.4942524 43.0284634,27.372615 43.0284634,20.7230926 L43.0284634,6.04423536 L39.5861863,6.04423536 L39.5861863,0 L37.8650478,0 L37.8650478,6.04423536 L31.8410629,6.04423536 L25.817078,6.04423536 L25.817078,0 L24.0959395,0 L24.0959395,6.04423536 L20.6536624,6.04423536 L20.6536624,20.7230926 C20.6536624,27.372615 18.2647221,28.4942524 12.908539,28.4942524 L12.0479698,28.4942524 L12.0479698,30.2211768 L4.30284634,30.2211768 C2.73919198,30.2211768 1.78396009,30.8808619 1.25901284,31.4334777 C0.586047671,32.1423802 0.215142317,33.0921886 0.215142317,34.1067566 C0.215142317,36.0374581 1.61959136,37.9923365 4.30284634,37.9923365 C5.93706738,37.9923365 6.66941183,39.076845 6.66941183,40.150992 C6.66941183,40.7200136 6.46717805,41.2467255 6.09971497,41.6335566 C5.68061774,42.0756492 5.05842616,42.3096475 4.30284634,42.3096475 L4.30284634,44.0365719 C5.8665007,44.0365719 6.82173259,43.3768868 7.34667984,42.824271 C8.01964501,42.1153685 8.39055036,41.1655601 8.39055036,40.150992 C8.39055036,38.2202905 6.98610132,36.2654121 4.30284634,36.2654121 C2.6686253,36.2654121 1.93628085,35.1809036 1.93628085,34.1067566 C1.93628085,33.0326097 2.6686253,31.9481012 4.30284634,31.9481012 L12.0479698,31.9481012 L12.0479698,77.7115974 L31.8410629,77.7115974 L51.6341561,77.7115974 L51.6341561,31.9481012 L59.3792795,31.9481012 C61.0135005,31.9481012 61.745845,33.0326097 61.745845,34.1067566 C61.745845,34.6757782 61.5436112,35.2024902 61.1761481,35.5893212 C60.7570509,36.0314139 60.1348593,36.2654121 59.3792795,36.2654121 C57.8156251,36.2654121 56.8603932,36.9250972 56.335446,37.4777131 C55.6624808,38.1866155 55.2915755,39.1364239 55.2915755,40.150992 C55.2915755,42.0816935 56.6960245,44.0365719 59.3792795,44.0365719 L59.3792795,42.3096475 C57.7450584,42.3096475 57.012714,41.225139 57.012714,40.150992 C57.012714,39.5819704 57.2149478,39.0552585 57.5824109,38.6684274 C58.0015081,38.2263348 58.6236997,37.9923365 59.3792795,37.9923365 C60.9429338,37.9923365 61.8981657,37.3326514 62.423113,36.7800356 C63.0960782,36.0711331 63.4669835,35.1213247 63.4669835,34.1067566 C63.4669835,32.1760552 62.0625345,30.2211768 59.3792795,30.2211768 L59.3792795,30.2211768 Z M49.9130175,75.984673 L31.8410629,75.984673 L13.7691083,75.984673 L13.7691083,74.2577487 L18.9325239,74.2577487 L18.9325239,72.5308243 L13.7691083,72.5308243 L13.7691083,70.8038999 L17.2113854,70.8038999 L17.2113854,69.0769755 L13.7691083,69.0769755 L13.7691083,30.2082248 C19.1063589,30.045894 22.374801,28.2369407 22.374801,20.7230926 L22.374801,7.77115974 L24.0959395,7.77115974 L24.0959395,9.49808413 C24.0959395,9.97471526 24.480614,10.3615463 24.9565088,10.3615463 C25.4324036,10.3615463 25.817078,9.97471526 25.817078,9.49808413 L25.817078,7.77115974 L31.8410629,7.77115974 L37.8650478,7.77115974 L37.8650478,9.49808413 C37.8650478,9.97471526 38.2497223,10.3615463 38.7256171,10.3615463 C39.2015119,10.3615463 39.5861863,9.97471526 39.5861863,9.49808413 L39.5861863,7.77115974 L41.3073249,7.77115974 L41.3073249,20.7230926 C41.3073249,26.367545 42.7737349,29.9457323 49.9130175,30.2056345 L49.9130175,75.984673 L49.9130175,75.984673 Z" id="path18" stroke="#000000"></path>
                        </g>
                    </g>
                </g>
            </g>
        </g>
    </g>
</svg>